<svg id="visual" viewBox="0 0 960 540" width="960" height="540" xmlns="http://www.w3.org/2000/svg" xmlns:xlink="http://www.w3.org/1999/xlink" version="1.1"><rect width="960" height="540" fill="#49274a"></rect><g><g transform="translate(494 228)"><path d="M0 -42.1L36.4 -21L36.4 21L0 42.1L-36.4 21L-36.4 -21Z" fill="#94618e"></path></g><g transform="translate(138 118)"><path d="M0 -39L33.8 -19.5L33.8 19.5L0 39L-33.8 19.5L-33.8 -19.5Z" fill="#94618e"></path></g><g transform="translate(390 290)"><path d="M0 -34L29.4 -17L29.4 17L0 34L-29.4 17L-29.4 -17Z" fill="#94618e"></path></g><g transform="translate(869 305)"><path d="M0 -38L32.9 -19L32.9 19L0 38L-32.9 19L-32.9 -19Z" fill="#94618e"></path></g><g transform="translate(590 453)"><path d="M0 -32L27.7 -16L27.7 16L0 32L-27.7 16L-27.7 -16Z" fill="#94618e"></path></g><g transform="translate(398 147)"><path d="M0 -23L19.9 -11.5L19.9 11.5L0 23L-19.9 11.5L-19.9 -11.5Z" fill="#94618e"></path></g><g transform="translate(48 370)"><path d="M0 -17L14.7 -8.5L14.7 8.5L0 17L-14.7 8.5L-14.7 -8.5Z" fill="#94618e"></path></g><g transform="translate(772 126)"><path d="M0 -39L33.8 -19.5L33.8 19.5L0 39L-33.8 19.5L-33.8 -19.5Z" fill="#94618e"></path></g><g transform="translate(656 400)"><path d="M0 -22L19.1 -11L19.1 11L0 22L-19.1 11L-19.1 -11Z" fill="#94618e"></path></g><g transform="translate(22 27)"><path d="M0 -27L23.4 -13.5L23.4 13.5L0 27L-23.4 13.5L-23.4 -13.5Z" fill="#94618e"></path></g><g transform="translate(291 347)"><path d="M0 -39L33.8 -19.5L33.8 19.5L0 39L-33.8 19.5L-33.8 -19.5Z" fill="#94618e"></path></g><g transform="translate(826 211)"><path d="M0 -15L13 -7.5L13 7.5L0 15L-13 7.5L-13 -7.5Z" fill="#94618e"></path></g><g transform="translate(256 109)"><path d="M0 -36L31.2 -18L31.2 18L0 36L-31.2 18L-31.2 -18Z" fill="#94618e"></path></g><g transform="translate(257 254)"><path d="M0 -35L30.3 -17.5L30.3 17.5L0 35L-30.3 17.5L-30.3 -17.5Z" fill="#94618e"></path></g><g transform="translate(37 183)"><path d="M0 -33L28.6 -16.5L28.6 16.5L0 33L-28.6 16.5L-28.6 -16.5Z" fill="#94618e"></path></g><g transform="translate(292 8)"><path d="M0 -36L31.2 -18L31.2 18L0 36L-31.2 18L-31.2 -18Z" fill="#94618e"></path></g><g transform="translate(415 19)"><path d="M0 -35L30.3 -17.5L30.3 17.5L0 35L-30.3 17.5L-30.3 -17.5Z" fill="#94618e"></path></g><g transform="translate(8 295)"><path d="M0 -21L18.2 -10.5L18.2 10.5L0 21L-18.2 10.5L-18.2 -10.5Z" fill="#94618e"></path></g><g transform="translate(652 119)"><path d="M0 -36L31.2 -18L31.2 18L0 36L-31.2 18L-31.2 -18Z" fill="#94618e"></path></g><g transform="translate(913 421)"><path d="M0 -35L30.3 -17.5L30.3 17.5L0 35L-30.3 17.5L-30.3 -17.5Z" fill="#94618e"></path></g><g transform="translate(150 533)"><path d="M0 -37L32 -18.5L32 18.5L0 37L-32 18.5L-32 -18.5Z" fill="#94618e"></path></g><g transform="translate(659 258)"><path d="M0 -21L18.2 -10.5L18.2 10.5L0 21L-18.2 10.5L-18.2 -10.5Z" fill="#94618e"></path></g><g transform="translate(827 438)"><path d="M0 -32L27.7 -16L27.7 16L0 32L-27.7 16L-27.7 -16Z" fill="#94618e"></path></g><g transform="translate(514 411)"><path d="M0 -40L34.6 -20L34.6 20L0 40L-34.6 20L-34.6 -20Z" fill="#94618e"></path></g><g transform="translate(314 179)"><path d="M0 -21L18.2 -10.5L18.2 10.5L0 21L-18.2 10.5L-18.2 -10.5Z" fill="#94618e"></path></g><g transform="translate(205 183)"><path d="M0 -15L13 -7.5L13 7.5L0 15L-13 7.5L-13 -7.5Z" fill="#94618e"></path></g><g transform="translate(587 42)"><path d="M0 -36L31.2 -18L31.2 18L0 36L-31.2 18L-31.2 -18Z" fill="#94618e"></path></g><g transform="translate(171 420)"><path d="M0 -17L14.7 -8.5L14.7 8.5L0 17L-14.7 8.5L-14.7 -8.5Z" fill="#94618e"></path></g><g transform="translate(408 462)"><path d="M0 -24L20.8 -12L20.8 12L0 24L-20.8 12L-20.8 -12Z" fill="#94618e"></path></g><g transform="translate(38 478)"><path d="M0 -41L35.5 -20.5L35.5 20.5L0 41L-35.5 20.5L-35.5 -20.5Z" fill="#94618e"></path></g><g transform="translate(886 34)"><path d="M0 -23L19.9 -11.5L19.9 11.5L0 23L-19.9 11.5L-19.9 -11.5Z" fill="#94618e"></path></g><g transform="translate(760 338)"><path d="M0 -18L15.6 -9L15.6 9L0 18L-15.6 9L-15.6 -9Z" fill="#94618e"></path></g><g transform="translate(542 145)"><path d="M0 -38L32.9 -19L32.9 19L0 38L-32.9 19L-32.9 -19Z" fill="#94618e"></path></g><g transform="translate(149 335)"><path d="M0 -18L15.6 -9L15.6 9L0 18L-15.6 9L-15.6 -9Z" fill="#94618e"></path></g><g transform="translate(521 538)"><path d="M0 -38L32.9 -19L32.9 19L0 38L-32.9 19L-32.9 -19Z" fill="#94618e"></path></g><g transform="translate(256 490)"><path d="M0 -33L28.6 -16.5L28.6 16.5L0 33L-28.6 16.5L-28.6 -16.5Z" fill="#94618e"></path></g><g transform="translate(503 326)"><path d="M0 -40L34.6 -20L34.6 20L0 40L-34.6 20L-34.6 -20Z" fill="#94618e"></path></g><g transform="translate(776 8)"><path d="M0 -27L23.4 -13.5L23.4 13.5L0 27L-23.4 13.5L-23.4 -13.5Z" fill="#94618e"></path></g><g transform="translate(818 524)"><path d="M0 -15L13 -7.5L13 7.5L0 15L-13 7.5L-13 -7.5Z" fill="#94618e"></path></g><g transform="translate(115 27)"><path d="M0 -19L16.5 -9.5L16.5 9.5L0 19L-16.5 9.5L-16.5 -9.5Z" fill="#94618e"></path></g><g transform="translate(377 375)"><path d="M0 -27L23.4 -13.5L23.4 13.5L0 27L-23.4 13.5L-23.4 -13.5Z" fill="#94618e"></path></g><g transform="translate(678 36)"><path d="M0 -29L25.1 -14.5L25.1 14.5L0 29L-25.1 14.5L-25.1 -14.5Z" fill="#94618e"></path></g><g transform="translate(712 186)"><path d="M0 -28L24.2 -14L24.2 14L0 28L-24.2 14L-24.2 -14Z" fill="#94618e"></path></g><g transform="translate(672 515)"><path d="M0 -20L17.3 -10L17.3 10L0 20L-17.3 10L-17.3 -10Z" fill="#94618e"></path></g><g transform="translate(92 267)"><path d="M0 -38L32.9 -19L32.9 19L0 38L-32.9 19L-32.9 -19Z" fill="#94618e"></path></g><g transform="translate(919 523)"><path d="M0 -23L19.9 -11.5L19.9 11.5L0 23L-19.9 11.5L-19.9 -11.5Z" fill="#94618e"></path></g><g transform="translate(945 157)"><path d="M0 -33L28.6 -16.5L28.6 16.5L0 33L-28.6 16.5L-28.6 -16.5Z" fill="#94618e"></path></g><g transform="translate(202 16)"><path d="M0 -32L27.7 -16L27.7 16L0 32L-27.7 16L-27.7 -16Z" fill="#94618e"></path></g><g transform="translate(957 302)"><path d="M0 -23L19.9 -11.5L19.9 11.5L0 23L-19.9 11.5L-19.9 -11.5Z" fill="#94618e"></path></g><g transform="translate(486 68)"><path d="M0 -34L29.4 -17L29.4 17L0 34L-29.4 17L-29.4 -17Z" fill="#94618e"></path></g><g transform="translate(344 531)"><path d="M0 -40L34.6 -20L34.6 20L0 40L-34.6 20L-34.6 -20Z" fill="#94618e"></path></g><g transform="translate(742 448)"><path d="M0 -20L17.3 -10L17.3 10L0 20L-17.3 10L-17.3 -10Z" fill="#94618e"></path></g><g transform="translate(588 348)"><path d="M0 -35L30.3 -17.5L30.3 17.5L0 35L-30.3 17.5L-30.3 -17.5Z" fill="#94618e"></path></g></g></svg>