<svg id="visual" viewBox="0 0 960 540" width="960" height="540" xmlns="http://www.w3.org/2000/svg" xmlns:xlink="http://www.w3.org/1999/xlink" version="1.1"><path d="M0 114L240 60L480 104L720 71L960 104L960 0L720 0L480 0L240 0L0 0Z" fill="#ff6f61"></path><path d="M0 309L240 249L480 282L720 195L960 195L960 102L720 69L480 102L240 58L0 112Z" fill="#bb332f"></path><path d="M0 465L240 411L480 411L720 368L960 476L960 193L720 193L480 280L240 247L0 307Z" fill="#7a0000"></path><path d="M0 541L240 541L480 541L720 541L960 541L960 474L720 366L480 409L240 409L0 463Z" fill="#000000"></path></svg>